<?xml version="1.0" encoding="UTF-8"?>
<svg id="Livello_1" xmlns="http://www.w3.org/2000/svg" version="1.1" viewBox="0 0 1200 318">
  <!-- Generator: Adobe Illustrator 30.1.0, SVG Export Plug-In . SVG Version: 2.1.1 Build 136)  -->
  <defs>
    <style>
      .st0 {
        fill: #a6192e;
      }
    </style>
  </defs>
  <polygon class="st0" points="389.5 83.5 371.1 83.5 371.1 252.9 467.2 252.9 467.2 235.9 389.5 235.9 389.5 83.5"/>
  <path class="st0" d="M548.3,135.8c-7.3-3.4-16.4-5.1-27.1-5.1s-13.9,1-21.4,2.9c-7.5,1.9-14.8,5.4-21.9,10.4l5.8,14.6c5.8-4.3,11.8-7.3,17.8-9.2,6.1-1.9,12.2-2.8,18.3-2.8s13.1,1.2,18,3.5c4.9,2.3,8.7,5.6,11.3,9.9,2.6,4.3,3.9,9.4,3.9,15.4v8c-13.5-1.3-25.2-1.4-35-.4-11.1,1.1-20.2,3.4-27,6.8-6.9,3.4-11.9,7.7-15.1,12.8-3.2,5.1-4.8,10.8-4.8,16.9s1.7,13.9,5,19.4c3.3,5.5,8,9.8,14.2,12.9,6.1,3.1,13.4,4.6,21.8,4.6s17-1.6,24.3-4.8c7.3-3.2,13.1-7.8,17.3-13.7v14.9h16.9v-77.6c0-9.8-1.9-17.9-5.7-24.6-3.8-6.6-9.4-11.6-16.7-15ZM548.2,225.8c-3.3,4.7-7.8,8.3-13.4,11-5.6,2.7-12,4-19.1,4s-15.1-1.9-19.8-5.7c-4.8-3.8-7.1-9.1-7.1-15.9s1.2-7.6,3.7-10.9c2.5-3.3,6.4-6,11.9-8.1,5.5-2.1,12.8-3.4,21.8-3.9,7.6-.4,16.6,0,27,1.1v12.2c0,6-1.7,11.4-5,16.1Z"/>
  <path class="st0" d="M672.1,204.3c0,7-1.6,13.2-4.7,18.5-3.1,5.3-7.3,9.5-12.5,12.4-5.2,2.9-11,4.4-17.5,4.4-9.8,0-17.6-2.8-23.4-8.5-5.7-5.7-8.6-13.1-8.6-22.3v-73.2h-17.9v77.7c0,7.1,1.7,14,5,20.6,3.3,6.6,8.4,12.1,15.2,16.3,6.8,4.3,15.4,6.4,25.7,6.4s14.9-1.5,21.6-4.5c6.7-3,12.6-7.7,17.7-14v14.9h17.1v-117.4h-17.9v68.7Z"/>
  <path class="st0" d="M780.7,133.1c-2-.5-4.1-.8-6.4-1-2.2-.2-4.4-.2-6.6-.2-7.6,0-14.7,1.6-21.4,4.7-6.7,3.1-12.5,8.7-17.6,16.9v-17.9h-17.9v117.4h17.9v-66.7c0-10.9,3.4-19.6,10.2-26.3,6.8-6.6,15.5-9.9,26-9.9s4.3.2,6.5.5c2.1.3,4.3.8,6.5,1.3l2.8-18.8Z"/>
  <path class="st0" d="M877,150.7c-4.9-5.9-10.9-10.5-18.2-13.8-7.3-3.3-15.5-5-24.8-5s-16.8,1.6-24.1,4.7c-7.4,3.1-13.8,7.5-19.4,13.1-5.5,5.6-9.8,12.3-12.8,20-3,7.7-4.5,16-4.5,24.9s2.7,23.2,8,32.5c5.3,9.3,12.7,16.6,22.1,21.7,9.4,5.2,20.3,7.7,32.7,7.7s10.6-.5,16-1.6c5.4-1,10.7-2.7,15.9-4.9,5.1-2.2,9.7-4.9,13.6-8.2l-8.7-13.9c-4.6,4-10,7.1-16.3,9.3-6.3,2.2-12.6,3.3-18.9,3.3-9.7,0-18-1.8-25.1-5.4-7-3.6-12.3-8.7-16-15.2-3.6-6.5-5.2-14.1-4.8-22.7h97.5c1-9.3.5-17.9-1.6-25.8-2.1-7.9-5.6-14.9-10.5-20.8ZM792.4,182.3c1.2-10.9,5.5-19.4,13-25.5,7.5-6.1,16.9-9.1,28.3-9.1s20.8,3,27,9.1c6.2,6.1,9.6,14.6,10,25.5h-78.3Z"/>
  <path class="st0" d="M968.4,135.8c-7.3-3.4-16.4-5.1-27.1-5.1s-13.9,1-21.4,2.9c-7.5,1.9-14.8,5.4-21.9,10.4l5.8,14.6c5.8-4.3,11.8-7.3,17.8-9.2,6.1-1.9,12.2-2.8,18.3-2.8s13.1,1.2,18,3.5c4.9,2.3,8.7,5.6,11.3,9.9,2.6,4.3,3.9,9.4,3.9,15.4v8c-13.5-1.3-25.2-1.4-35-.4-11.1,1.1-20.2,3.4-27,6.8-6.9,3.4-11.9,7.7-15.1,12.8-3.2,5.1-4.8,10.8-4.8,16.9s1.7,13.9,5,19.4c3.3,5.5,8,9.8,14.2,12.9,6.1,3.1,13.4,4.6,21.8,4.6s17-1.6,24.3-4.8c7.3-3.2,13.1-7.8,17.3-13.7v14.9h16.9v-77.6c0-9.8-1.9-17.9-5.7-24.6-3.8-6.6-9.4-11.6-16.7-15ZM968.3,225.8c-3.3,4.7-7.8,8.3-13.4,11-5.6,2.7-12,4-19.1,4s-15.1-1.9-19.8-5.7c-4.8-3.8-7.1-9.1-7.1-15.9s1.2-7.6,3.7-10.9c2.5-3.3,6.4-6,11.9-8.1,5.5-2.1,12.8-3.4,21.8-3.9,7.6-.4,16.6,0,27,1.1v12.2c0,6-1.7,11.4-5,16.1Z"/>
  <path class="st0" d="M1093.5,155l-16-4.7c-7.3-2.1-13-4.1-17.1-6.1-4.2-1.9-7.1-4-8.8-6.2-1.7-2.2-2.6-4.9-2.6-8s1.2-7.6,3.6-10.6c2.4-2.9,5.8-5.2,10.2-6.8,4.4-1.6,9.5-2.4,15.3-2.4s10.8.7,16.1,2c5.3,1.3,10.3,3.2,14.8,5.6,4.6,2.4,8.4,5.1,11.7,8.3l17.7-26c-6.6-6.2-15.2-11.1-25.8-14.7-10.6-3.6-22.1-5.4-34.4-5.4s-17.6,1.3-25.4,3.8c-7.8,2.5-14.5,6.1-20.2,10.7-5.7,4.6-10.1,10.1-13.3,16.4-3.1,6.3-4.7,13.3-4.7,20.8,0,11.6,3.8,21.5,11.3,29.6,7.5,8.1,19.8,14.6,36.8,19.4l15.5,4.4c11,3.1,18.5,6.3,22.5,9.6,4,3.3,6.1,7.5,6.1,12.5s-2.9,10.9-8.6,14.2c-5.7,3.2-13.2,4.8-22.4,4.8s-12-.7-18.2-2.1c-6.2-1.4-12-3.4-17.4-6.1-5.4-2.7-10-5.8-13.7-9.6l-17.1,26.9c8.1,6.9,18.1,12.2,29.9,15.9,11.8,3.6,23.9,5.4,36.4,5.4s25.3-2.2,35.2-6.7c9.9-4.5,17.5-10.7,22.8-18.8,5.3-8,7.9-17.3,7.9-27.8s-3.8-21.9-11.4-29.5c-7.6-7.6-19.8-13.8-36.5-18.8Z"/>
  <path class="st0" d="M1152.8,145.2v107.7h35.3v-122c-11.9,8-24.8,12.1-35.3,14.3Z"/>
  <path class="st0" d="M1146,137s61.6-6.5,52-68.2l-44.7,31.9s14.6,18.9-7.3,36.3Z"/>
  <path class="st0" d="M89.5,170.5c-5.6-6.7-13.7-10.9-22.6-10.9-17.1,0-30.9,15.3-30.9,34.1s6.7,25,18.3,30.9c12.7,6.4,33.2,4.2,40.4-9.5,7.8,9.3,24.3,8.4,34.2,3.4,11.6-5.9,18.3-18.1,18.3-30.9,0-18.8-13.8-34.1-30.9-34.1s-21.4,6.9-26.7,17ZM77.8,196.9c-5.2,5.1-13.8,5.3-19.2.5-5.4-4.9-5.6-12.9-.5-18.1,5.2-5.1,13.8-5.3,19.2-.5.9.8,1.7,1.8,2.3,2.8-1.8-.8-3.9-.7-5.6,1-4.6,4.5,2.8,11.2,7.4,6.7-.3,2.7-1.5,5.4-3.6,7.5ZM93.7,206.3s-6.3-5.1-5.6-7.3c.7-2.1,8.1-2.7,9.5-.9,1.4,1.8-3.9,8.2-3.9,8.2ZM123.1,176.4c-1.8-.8-3.9-.7-5.6,1-4.6,4.5,2.8,11.2,7.4,6.7-.3,2.7-1.5,5.4-3.6,7.5-5.2,5.1-13.8,5.3-19.2.5-5.4-4.9-5.6-12.9-.5-18.1,5.2-5.1,13.8-5.3,19.2-.5.9.8,1.7,1.8,2.3,2.8Z"/>
  <path class="st0" d="M330.1,27.7c-.6-8.3-1.6-16.8-3.1-25.7l-60,28.3c-33.2,15.6-71.8,33.7-92.4,43.5,0,0,0,0,0,0l-14.8,7c12.4,27.4,19.7,57.8,18.1,88-1.4,26.6-9.6,57.6-33.6,72.6-1.8,1.1-3.6,2.1-5.5,3-11.4,5.6-24.3,7.6-37,7.5-16.1-.1-32.5-3.9-46.1-12.7-19.6-12.8-31.7-36.6-24-59.7.6-1.8,1.4-3.6,2.2-5.3,3.8-.6,6.6-2.6,6.6-2.6-1.8,0-3.4-.3-4.9-.7-.8-.3-1.6-.6-2.3-1.1,0,0-.1,0-.2-.1-.7-.4-1.3-.9-1.9-1.4,0,0-.2-.1-.2-.2-.6-.5-1.1-1.1-1.6-1.7,0,0-.1-.2-.2-.2-.5-.6-.9-1.3-1.4-2,0,0,0-.1,0-.2-.8-1.5-1.5-3.2-2.1-4.9,0,0,0,0,0-.1-.3-.8-.5-1.7-.7-2.5,0,0,0-.2,0-.3-.2-.8-.3-1.6-.5-2.5,0,0,0-.2,0-.3-.1-.8-.2-1.6-.3-2.4,0,0,0-.2,0-.2,0-.8-.2-1.6-.2-2.4,0-.8,0-1.6-.1-2.3,0-.7,0-1.4,0-2,0,0,0-.1,0-.2,0-.6,0-1.1,0-1.6,0,0,0-.1,0-.2,0-.5,0-.9,0-1.2,0,0,0,0,0,0,0-.3,0-.6,0-.8,0-.2,0-.3,0-.3,11.8,18.4,35.9,10.5,35.9,10.5,0,0,16.8-5.7,27-6.9,11.1-1.4,22-1,32,1.1,0,0,7.4,1.4,11.6-3.4-10.9-18.7-29.5-39.2-59.7-60.9l77.5-46.1c-18.7-.7-37.9,2.3-56.6,9.6C23.5,69.8-13.6,144.6,6.4,214.5c22.2,77.7,104.2,120.7,180.3,95.9,56.1-18.3,93-68.4,97.3-123.8-31.7,28.2-70.1,41.5-99.8,47.9,58.6-18.8,156.2-70.8,145.9-206.8Z"/>
  <path class="st0" d="M156.8,214.3c.6-1.2,1.2-2.5,1.8-3.7.5-1.2,1.1-2.4,1.5-3.7,0,0,0-.1,0-.2.5-1.3,1-2.6,1.4-3.9,11.9-34.8-.4-68.2-1.1-70.1-5.4-16.4-13.5-29.6-20.3-38.8-2.4-3.3-5-6.5-7.7-9.6-.4-.5-.8-.9-1.2-1.3-.1-.1-.2-.2-.3-.4-1.8-1.9-2.9-3-2.9-3s21.7-11.4,39.4-20.8l.4-.2c2.6-1.4,5.1-2.7,7.4-3.9l4-2.1c.5-.2.9-.5,1.3-.7l3.2-1.7c1.3-.7,2.3-1.2,3.2-1.7l1.8-.9c.7-.4,1.1-.6,1.1-.6,0,0,0,0,0,0,12.7-6.7,25-13.2,34.3-18.1,0,0,0,0,0,0l2.4-1.3c1.6-.8,3-1.6,4.3-2.2l7-3.7h.2c0-.1,2-1.2,2-1.2l-5.6-20L97.9,76.8s76.7,51.2,58.9,137.4Z"/>
</svg>