<?xml version="1.0" encoding="UTF-8"?>
<svg id="Livello_1" xmlns="http://www.w3.org/2000/svg" version="1.1" viewBox="0 0 1080 1080">
  <!-- Generator: Adobe Illustrator 30.1.0, SVG Export Plug-In . SVG Version: 2.1.1 Build 136)  -->
  <defs>
    <style>
      .st0 {
        fill: #a61a2f;
      }
    </style>
  </defs>
  <path class="st0" d="M293.3,577c-18.2-21.7-44.2-35.3-73.1-35.3-55.1,0-99.8,49.3-99.8,110.1s21.8,80.8,59.1,99.7c40.9,20.7,107.4,13.5,130.5-30.6,25.2,29.9,78.6,27.2,110.5,11,37.4-19.1,58.9-58.4,58.9-99.8,0-60.8-44.7-110.1-99.8-110.1s-69.1,22.2-86.3,55ZM255.4,662.4c-16.7,16.5-44.5,17.2-62.1,1.5-17.6-15.7-18.2-41.8-1.5-58.3,16.7-16.5,44.5-17.2,62.1-1.5,3.1,2.7,5.4,5.8,7.4,9.1-5.7-2.5-12.6-2.2-18.2,3.4-14.8,14.6,9.2,36,24,21.6-1,8.8-4.7,17.4-11.7,24.3ZM306.8,692.7s-20.3-16.6-18-23.5c2.3-6.9,26.2-8.8,30.7-2.9,4.5,5.9-12.6,26.4-12.6,26.4ZM401.8,596.2c-5.7-2.5-12.6-2.2-18.2,3.4-14.8,14.6,9.2,36,24,21.6-1,8.8-4.7,17.4-11.7,24.3-16.7,16.5-44.5,17.2-62.1,1.5-17.6-15.7-18.2-41.8-1.5-58.3,16.7-16.5,44.5-17.2,62.1-1.5,3.1,2.7,5.4,5.8,7.4,9.1Z"/>
  <path class="st0" d="M1070.3,115.8c-2-26.7-5.2-54.3-10-83l-193.7,91.3c-107.2,50.4-231.8,109-298.6,140.6,0,0,0,0,0,0l-47.8,22.5c40.1,88.5,63.7,186.6,58.4,284.2-4.6,85.8-31,186.2-108.6,234.4-5.8,3.6-11.7,6.9-17.8,9.8-36.9,17.9-78.5,24.7-119.6,24.3-52.1-.5-105.1-12.6-148.7-41.1-63.2-41.2-102.4-118.3-77.4-192.9,2-6,4.4-11.6,7.1-17,12.3-1.8,21.4-8.4,21.4-8.4-5.9,0-11.1-.8-15.8-2.4-2.7-.9-5.2-2.1-7.6-3.5-.2-.1-.4-.2-.6-.4-2.2-1.3-4.3-2.9-6.2-4.6-.2-.2-.5-.4-.7-.7-1.9-1.7-3.6-3.6-5.2-5.6-.2-.3-.4-.5-.6-.8-1.6-2.1-3-4.2-4.4-6.5-.1-.2-.2-.4-.3-.6-2.7-4.9-4.9-10.2-6.7-15.7,0-.1,0-.2-.1-.4-.8-2.7-1.6-5.4-2.2-8.1,0-.3-.1-.6-.2-.8-.6-2.6-1.1-5.3-1.6-7.9,0-.3-.1-.6-.2-.9-.4-2.6-.8-5.2-1.1-7.8,0-.2,0-.5,0-.7-.3-2.6-.5-5.2-.7-7.7-.2-2.6-.3-5.1-.4-7.4,0-2.3,0-4.4-.1-6.3,0-.2,0-.3,0-.5,0-1.9,0-3.6,0-5.1,0-.2,0-.3,0-.5,0-1.5,0-2.8.2-3.9,0-.1,0-.2,0-.3,0-1.1.1-1.9.2-2.6,0-.6,0-.9,0-.9,38.2,59.3,116,34,116,34,0,0,54.3-18.4,87.1-22.4,35.8-4.4,71.1-3.2,103.3,3.4,0,0,23.8,4.5,37.3-10.9-35.1-60.3-95.4-126.6-192.7-196.7l250.3-149c-60.4-2.2-122.5,7.5-183,30.9C80.1,252-39.8,493.6,24.8,719.3c71.8,250.8,336.5,389.9,582.3,309.6,181.3-59.2,300.4-220.8,314.3-399.8-102.5,91-226.4,134.2-322.3,154.7,189.2-60.9,504.4-228.8,471.2-668Z"/>
  <path class="st0" d="M510.5,718.5c2-4,3.9-8,5.8-12,1.8-3.9,3.4-7.8,5-11.8,0-.2.1-.4.2-.6,1.6-4.1,3.2-8.3,4.6-12.6,38.5-112.4-1.2-220.4-3.5-226.4-17.4-52.9-43.7-95.7-65.6-125.4-7.7-10.8-16.1-21.1-24.9-30.9-1.3-1.5-2.6-2.9-3.7-4.1-.4-.4-.7-.8-1.1-1.2-5.8-6.3-9.4-9.6-9.4-9.6s70-37,127.1-67.1l1.3-.7c8.4-4.4,16.4-8.7,23.9-12.6l12.9-6.8c1.5-.8,2.9-1.5,4.3-2.3l10.3-5.5c4-2.1,7.6-4,10.5-5.5l5.7-3c2.2-1.2,3.5-1.8,3.5-1.8,0,0,0,0,0,0,41.1-21.6,80.8-42.5,110.7-58.4,0,0,0,0,0,0l7.9-4.2c5.1-2.7,9.6-5.1,13.7-7.3l22.8-12,.7-.4,6.6-3.5-18.1-64.5-441.7,246.3s247.8,165.5,190.3,443.9Z"/>
</svg>