<?xml version="1.0" encoding="UTF-8"?>
<svg id="Livello_1" xmlns="http://www.w3.org/2000/svg" version="1.1" viewBox="0 0 1080 1080">
  <!-- Generator: Adobe Illustrator 30.1.0, SVG Export Plug-In . SVG Version: 2.1.1 Build 136)  -->
  <defs>
    <style>
      .st0 {
        fill: #fff;
      }
    </style>
  </defs>
  <path class="st0" d="M358.5,598.5c-15.2,15-14.6,38.7,1.3,52.9,15.9,14.2,41.1,13.6,56.3-1.4,6.3-6.3,9.8-14,10.6-22-13.4,13.1-35.2-6.3-21.8-19.6,5.1-5,11.4-5.3,16.5-3.1-1.8-3-4-5.8-6.7-8.3-15.9-14.2-41.1-13.6-56.3,1.4Z"/>
  <path class="st0" d="M319,671.6c-2.1,6.3,16.4,21.3,16.4,21.3,0,0,15.6-18.6,11.5-24-4.1-5.3-25.8-3.6-27.8,2.6Z"/>
  <path class="st0" d="M277.5,623.9c5.1-5,11.4-5.3,16.6-3.1-1.8-3-4-5.8-6.7-8.3-15.9-14.2-41.1-13.6-56.3,1.4-15.2,15-14.6,38.7,1.3,52.9,15.9,14.2,41.1,13.6,56.3-1.4,6.3-6.3,9.8-14,10.6-22-13.4,13.1-35.2-6.3-21.8-19.6Z"/>
  <path class="st0" d="M1071.6,161.9c-2.1-27.6-5.2-53.7-9.7-79.9l-11.2-66.2-236.4,111.4c-.9.4-1.9.9-2.8,1.3l-31.9-114-218.1,121.6-72.5-2.7c-63.6-2.4-126.3,8.2-186.2,31.5C80.7,250.9-41.9,497.9,23.7,727c35.2,123.1,116.7,223.8,229.5,283.7,68.5,36.4,142.9,54.8,218,54.8s97.6-7.7,145.4-23.3c179.7-58.7,305.3-218.5,320-407l2-25.8c86.4-101.4,148.3-245.2,133-447.5ZM748.1,90.4l16.4,58.5-5.9,3.1-.6.3-20.6,10.9c-3.7,2-7.9,4.2-12.5,6.6l-7.2,3.8s0,0,0,0c-27.2,14.5-63.2,33.4-100.4,53,0,0,0,0,0,0,0,0-1.2.6-3.2,1.7l-5.2,2.7c-2.6,1.4-5.8,3.1-9.5,5l-9.4,4.9c-1.3.7-2.6,1.4-3.9,2.1l-11.7,6.2c-6.8,3.6-14.1,7.5-21.7,11.5l-1.2.6c-51.8,27.3-115.3,60.9-115.3,60.9,0,0,3.2,3.1,8.5,8.7.3.3.6.7,1,1.1,1.1,1.2,2.2,2.4,3.4,3.7,8,8.9,15.6,18.2,22.6,28,19.9,26.9,43.7,65.7,59.5,113.7,2.1,5.4,38.1,103.4,3.2,205.3-1.3,3.9-2.7,7.6-4.2,11.4,0,.2-.1.3-.2.5-1.4,3.6-2.9,7.2-4.5,10.7-1.6,3.6-3.4,7.3-5.2,10.9,52.1-252.5-172.6-402.6-172.6-402.6l400.6-223.3ZM491.9,638c0,37.5-19.6,73.2-53.5,90.5-28.9,14.8-77.4,17.2-100.2-9.9-21,40-81.3,46.5-118.4,27.7-33.9-17.1-53.6-53.1-53.6-90.4,0-55.2,40.5-99.9,90.5-99.9s49.8,12.4,66.3,32c15.7-29.8,44.8-49.9,78.3-49.9,50,0,90.5,44.7,90.5,99.9ZM600.4,775.5c87-18.6,199.4-57.8,292.3-140.3-12.6,162.3-120.7,308.9-285.1,362.6-222.9,72.8-463-53.3-528.1-280.8-58.6-204.7,50.2-423.8,248.7-500.7,54.8-21.3,111.1-30.1,165.9-28.1l-227,135.2c88.3,63.6,142.9,123.7,174.8,178.4-12.3,14-33.9,9.9-33.9,9.9-29.2-5.9-61.2-7.1-93.7-3.1-29.7,3.7-79,20.4-79,20.3,0,0-70.6,23-105.2-30.8,0,0,0,.3,0,.8,0,.6,0,1.4-.1,2.3,0,0,0,.2,0,.3,0,1,0,2.2-.1,3.5,0,.1,0,.3,0,.4,0,1.4,0,2.9,0,4.6,0,.2,0,.3,0,.5,0,1.8,0,3.7,0,5.7,0,2.2.2,4.4.3,6.8.2,2.3.4,4.6.6,7,0,.2,0,.4,0,.7.3,2.3.6,4.7,1,7,0,.3,0,.6.1.8.4,2.4.9,4.8,1.4,7.2,0,.2.1.5.2.8.6,2.5,1.2,4.9,2,7.3,0,.1,0,.2.1.3,1.6,5,3.6,9.8,6.1,14.2,0,.2.2.3.3.5,1.2,2.1,2.5,4.1,4,5.9.2.2.4.5.5.7,1.4,1.8,3,3.5,4.7,5.1.2.2.4.4.7.6,1.7,1.5,3.6,2.9,5.6,4.2.2.1.4.2.6.3,2.1,1.2,4.4,2.3,6.9,3.1,4.3,1.4,9,2.2,14.3,2.2,0,0-8.2,6-19.4,7.6-2.4,5-4.6,10-6.4,15.5-22.6,67.6,12.9,137.6,70.2,175,39.6,25.8,87.6,36.8,134.9,37.3,37.2.3,75-5.8,108.5-22.1,5.5-2.7,10.9-5.7,16.2-8.9,70.3-43.7,94.3-134.7,98.5-212.6,4.8-88.5-16.6-177.4-53-257.7l43.4-20.4s0,0,0,0c60.5-28.7,173.5-81.8,270.8-127.5l175.7-82.8c4.4,26,7.3,51.1,9.1,75.3,30.1,398.3-255.8,550.6-427.4,605.8Z"/>
</svg>