<?xml version="1.0" encoding="UTF-8"?>
<svg id="Livello_1" xmlns="http://www.w3.org/2000/svg" version="1.1" viewBox="0 0 1200 354">
  <!-- Generator: Adobe Illustrator 30.1.0, SVG Export Plug-In . SVG Version: 2.1.1 Build 136)  -->
  <defs>
    <style>
      .st0 {
        fill: #fff;
      }
    </style>
  </defs>
  <polygon class="st0" points="402.3 107.8 384.2 107.8 384.2 274.5 478.7 274.5 478.7 257.7 402.3 257.7 402.3 107.8"/>
  <path class="st0" d="M558.6,159.2c-7.2-3.3-16.1-5-26.7-5s-13.7,1-21.1,2.9c-7.4,1.9-14.6,5.3-21.6,10.2l5.7,14.4c5.7-4.2,11.6-7.2,17.6-9.1,6-1.8,12-2.7,18-2.7s12.9,1.1,17.7,3.5c4.8,2.3,8.6,5.6,11.1,9.8,2.6,4.2,3.9,9.3,3.9,15.1v7.9c-13.3-1.2-24.8-1.4-34.4-.4-11,1.1-19.8,3.4-26.6,6.7-6.8,3.4-11.8,7.6-14.9,12.6-3.1,5-4.7,10.6-4.7,16.6s1.6,13.7,4.9,19.1c3.3,5.4,7.9,9.7,13.9,12.7,6,3,13.2,4.5,21.4,4.5s16.7-1.6,23.9-4.7c7.2-3.1,12.9-7.6,17-13.5v14.6h16.7v-76.3c0-9.6-1.9-17.7-5.6-24.2-3.7-6.5-9.2-11.4-16.4-14.8ZM558.5,247.8c-3.3,4.6-7.7,8.2-13.2,10.8-5.6,2.6-11.8,3.9-18.8,3.9s-14.8-1.9-19.5-5.6c-4.7-3.7-7-8.9-7-15.6s1.2-7.5,3.6-10.7c2.4-3.3,6.3-5.9,11.7-8,5.4-2.1,12.6-3.3,21.5-3.8,7.5-.4,16.4,0,26.6,1.1v12c0,6-1.6,11.2-4.9,15.8Z"/>
  <path class="st0" d="M680.5,226.6c0,6.9-1.5,13-4.6,18.2-3.1,5.2-7.1,9.3-12.3,12.2-5.1,2.9-10.9,4.3-17.2,4.3-9.7,0-17.3-2.8-23-8.4-5.6-5.6-8.5-12.9-8.5-22v-72.1h-17.6v76.5c0,7,1.6,13.7,4.9,20.2,3.3,6.5,8.3,11.9,15,16.1,6.7,4.2,15.1,6.3,25.3,6.3s14.7-1.5,21.3-4.4c6.5-2.9,12.4-7.5,17.4-13.8v14.6h16.8v-115.5h-17.6v67.7Z"/>
  <path class="st0" d="M787.3,156.6c-2-.5-4.1-.8-6.3-1-2.2-.2-4.3-.2-6.5-.2-7.5,0-14.5,1.5-21,4.6-6.5,3.1-12.3,8.6-17.3,16.6v-17.6h-17.6v115.5h17.6v-65.6c0-10.7,3.4-19.3,10.1-25.8,6.7-6.5,15.2-9.8,25.5-9.8s4.3.2,6.4.5c2.1.3,4.2.8,6.4,1.3l2.7-18.5Z"/>
  <path class="st0" d="M882.1,173.9c-4.8-5.8-10.8-10.3-17.9-13.6-7.1-3.3-15.3-4.9-24.4-4.9s-16.5,1.5-23.8,4.6c-7.3,3.1-13.6,7.4-19.1,12.9-5.4,5.6-9.6,12.1-12.6,19.7-3,7.5-4.5,15.7-4.5,24.5s2.6,22.8,7.9,32c5.2,9.2,12.5,16.3,21.8,21.4,9.3,5.1,20,7.6,32.2,7.6s10.4-.5,15.8-1.5c5.4-1,10.6-2.6,15.6-4.8,5-2.2,9.5-4.9,13.4-8l-8.6-13.7c-4.5,4-9.9,7-16,9.2-6.2,2.1-12.4,3.2-18.6,3.2-9.5,0-17.7-1.8-24.7-5.4-6.9-3.6-12.1-8.6-15.7-14.9-3.6-6.4-5.2-13.8-4.8-22.3h96c1-9.1.5-17.6-1.6-25.4-2.1-7.8-5.6-14.6-10.4-20.4ZM798.9,204.9c1.2-10.7,5.5-19.1,12.8-25.1,7.3-6,16.6-9,27.8-9s20.5,3,26.6,9c6.2,6,9.4,14.4,9.8,25.1h-77.1Z"/>
  <path class="st0" d="M972,159.2c-7.2-3.3-16.1-5-26.7-5s-13.7,1-21.1,2.9c-7.4,1.9-14.6,5.3-21.6,10.2l5.7,14.4c5.7-4.2,11.6-7.2,17.6-9.1,6-1.8,12-2.7,18-2.7s12.9,1.1,17.7,3.5c4.8,2.3,8.6,5.6,11.1,9.8,2.6,4.2,3.9,9.3,3.9,15.1v7.9c-13.3-1.2-24.8-1.4-34.4-.4-11,1.1-19.8,3.4-26.6,6.7-6.8,3.4-11.8,7.6-14.9,12.6-3.1,5-4.7,10.6-4.7,16.6s1.6,13.7,4.9,19.1c3.3,5.4,7.9,9.7,13.9,12.7,6,3,13.2,4.5,21.4,4.5s16.7-1.6,23.9-4.7c7.2-3.1,12.9-7.6,17-13.5v14.6h16.7v-76.3c0-9.6-1.9-17.7-5.6-24.2-3.7-6.5-9.2-11.4-16.4-14.8ZM971.9,247.8c-3.3,4.6-7.7,8.2-13.2,10.8-5.6,2.6-11.8,3.9-18.8,3.9s-14.8-1.9-19.5-5.6c-4.7-3.7-7-8.9-7-15.6s1.2-7.5,3.6-10.7c2.4-3.3,6.3-5.9,11.7-8,5.4-2.1,12.6-3.3,21.5-3.8,7.5-.4,16.4,0,26.6,1.1v12c0,6-1.6,11.2-4.9,15.8Z"/>
  <path class="st0" d="M1095.2,178.1l-15.7-4.6c-7.1-2.1-12.8-4.1-16.9-6-4.1-1.9-7-3.9-8.7-6.1-1.7-2.2-2.6-4.8-2.6-7.9s1.2-7.5,3.6-10.4c2.4-2.9,5.7-5.1,10.1-6.7,4.3-1.5,9.3-2.3,15.1-2.3s10.6.7,15.8,2c5.2,1.3,10.1,3.1,14.6,5.5,4.5,2.3,8.3,5.1,11.5,8.2l17.4-25.6c-6.5-6.1-15-10.9-25.4-14.5-10.4-3.5-21.7-5.3-33.9-5.3s-17.3,1.3-25,3.7c-7.7,2.5-14.3,6-19.9,10.5-5.6,4.5-9.9,9.9-13,16.1-3.1,6.2-4.6,13-4.6,20.4,0,11.4,3.7,21.2,11.1,29.2,7.4,8,19.5,14.4,36.2,19.1l15.2,4.3c10.8,3,18.2,6.2,22.2,9.5,4,3.3,6,7.4,6,12.3s-2.8,10.8-8.5,13.9c-5.6,3.2-13,4.8-22,4.8s-11.9-.7-17.9-2.1c-6.1-1.4-11.8-3.4-17.2-6-5.4-2.6-9.9-5.8-13.5-9.4l-16.8,26.4c8,6.8,17.8,12,29.4,15.6,11.6,3.6,23.5,5.4,35.8,5.4s24.9-2.2,34.6-6.6c9.7-4.4,17.2-10.6,22.4-18.5,5.2-7.9,7.8-17,7.8-27.3s-3.7-21.6-11.2-29.1c-7.5-7.5-19.5-13.6-36-18.5Z"/>
  <path class="st0" d="M1153.6,168.5v106h34.8v-120.1c-11.7,7.8-24.4,11.9-34.8,14.1Z"/>
  <path class="st0" d="M1146.8,160.4s60.6-6.4,51.2-67.1l-44,31.4s14.3,18.6-7.2,35.7Z"/>
  <g>
    <path class="st0" d="M119.4,196.7c-5.1,5-4.9,13,.5,17.8,5.3,4.8,13.8,4.6,18.9-.5,2.1-2.1,3.3-4.7,3.6-7.4-4.5,4.4-11.8-2.1-7.3-6.6,1.7-1.7,3.8-1.8,5.6-1-.6-1-1.3-1.9-2.3-2.8-5.3-4.8-13.8-4.6-18.9.5Z"/>
    <path class="st0" d="M106.1,221.2c-.7,2.1,5.5,7.2,5.5,7.2,0,0,5.2-6.3,3.9-8-1.4-1.8-8.7-1.2-9.3.9Z"/>
    <path class="st0" d="M92.2,205.2c1.7-1.7,3.8-1.8,5.6-1-.6-1-1.3-1.9-2.3-2.8-5.3-4.8-13.8-4.6-18.9.5-5.1,5-4.9,13,.5,17.8,5.3,4.8,13.8,4.6,18.9-.5,2.1-2.1,3.3-4.7,3.6-7.4-4.5,4.4-11.8-2.1-7.3-6.6Z"/>
    <path class="st0" d="M359,50c-.7-9.3-1.8-18-3.2-26.9l-3.8-22.2-79.4,37.4c-.3.1-.6.3-.9.4L260.9.4l-73.3,40.9-24.4-.9c-21.4-.8-42.4,2.8-62.6,10.6C26.1,79.9-15.1,162.8,6.9,239.8c11.8,41.3,39.2,75.2,77.1,95.3,23,12.2,48,18.4,73.2,18.4s32.8-2.6,48.8-7.8c60.4-19.7,102.6-73.4,107.5-136.7l.7-8.7c29-34.1,49.8-82.4,44.7-150.3ZM250.3,26l5.5,19.7-2,1.1h-.2c0,.1-6.9,3.8-6.9,3.8-1.3.7-2.6,1.4-4.2,2.2l-2.4,1.3s0,0,0,0c-9.1,4.9-21.2,11.2-33.7,17.8,0,0,0,0,0,0,0,0-.4.2-1.1.6l-1.7.9c-.9.5-2,1-3.2,1.7l-3.1,1.7c-.4.2-.9.5-1.3.7l-3.9,2.1c-2.3,1.2-4.7,2.5-7.3,3.9l-.4.2c-17.4,9.2-38.7,20.4-38.7,20.4,0,0,1.1,1,2.9,2.9.1.1.2.2.3.4.4.4.7.8,1.1,1.3,2.7,3,5.2,6.1,7.6,9.4,6.7,9,14.7,22.1,20,38.2.7,1.8,12.8,34.7,1.1,69-.4,1.3-.9,2.6-1.4,3.8,0,0,0,.1,0,.2-.5,1.2-1,2.4-1.5,3.6-.6,1.2-1.1,2.4-1.8,3.7,17.5-84.8-58-135.2-58-135.2L250.3,26ZM164.2,209.9c0,12.6-6.6,24.6-18,30.4-9.7,5-26,5.8-33.7-3.3-7.1,13.4-27.3,15.6-39.8,9.3-11.4-5.8-18-17.8-18-30.4,0-18.5,13.6-33.6,30.4-33.6s16.7,4.2,22.3,10.8c5.3-10,15.1-16.8,26.3-16.8,16.8,0,30.4,15,30.4,33.6ZM200.7,256.1c29.2-6.2,67-19.4,98.2-47.1-4.2,54.5-40.5,103.8-95.8,121.8-74.9,24.5-155.6-17.9-177.4-94.3C6,167.7,42.5,94.1,109.2,68.2c18.4-7.1,37.3-10.1,55.7-9.4l-76.3,45.4c29.7,21.4,48,41.5,58.7,59.9-4.1,4.7-11.4,3.3-11.4,3.3-9.8-2-20.6-2.4-31.5-1-10,1.2-26.5,6.8-26.5,6.8,0,0-23.7,7.7-35.3-10.3,0,0,0,.1,0,.3,0,.2,0,.5,0,.8,0,0,0,0,0,0,0,.3,0,.7,0,1.2,0,0,0,.1,0,.2,0,.5,0,1,0,1.6,0,0,0,.1,0,.2,0,.6,0,1.2,0,1.9,0,.7,0,1.5.1,2.3,0,.8.1,1.6.2,2.4,0,0,0,.1,0,.2,0,.8.2,1.6.3,2.4,0,0,0,.2,0,.3.1.8.3,1.6.5,2.4,0,0,0,.2,0,.3.2.8.4,1.7.7,2.5,0,0,0,0,0,.1.5,1.7,1.2,3.3,2,4.8,0,0,0,.1,0,.2.4.7.8,1.4,1.3,2,0,0,.1.2.2.2.5.6,1,1.2,1.6,1.7,0,0,.1.1.2.2.6.5,1.2,1,1.9,1.4,0,0,.1,0,.2.1.7.4,1.5.8,2.3,1.1,1.4.5,3,.7,4.8.7,0,0-2.8,2-6.5,2.6-.8,1.7-1.5,3.4-2.1,5.2-7.6,22.7,4.3,46.2,23.6,58.8,13.3,8.7,29.4,12.4,45.3,12.5,12.5.1,25.2-1.9,36.4-7.4,1.9-.9,3.7-1.9,5.4-3,23.6-14.7,31.7-45.3,33.1-71.4,1.6-29.7-5.6-59.6-17.8-86.6l14.6-6.9s0,0,0,0c20.3-9.6,58.3-27.5,91-42.8l59-27.8c1.5,8.7,2.4,17.2,3.1,25.3,10.1,133.8-85.9,185-143.6,203.5Z"/>
  </g>
</svg>